<?xml version="1.0" encoding="utf-8"?>
<!-- Generator: Adobe Illustrator 24.1.2, SVG Export Plug-In . SVG Version: 6.00 Build 0)  -->
<svg version="1.1" id="Layer_1" xmlns:serif="http://www.serif.com/"
	 xmlns="http://www.w3.org/2000/svg" xmlns:xlink="http://www.w3.org/1999/xlink" x="0px" y="0px" viewBox="0 0 24 24"
	 style="enable-background:new 0 0 24 24;" xml:space="preserve">
<style type="text/css">
	.st0{fill-rule:evenodd;clip-rule:evenodd;fill:url(#telegram-1_1_);}
</style>
<linearGradient id="telegram-1_1_" gradientUnits="userSpaceOnUse" x1="-3.999383e-04" y1="12.9998" x2="24.0001" y2="12.9998">
	<stop offset="0" style="stop-color:#55451d"/>
        <stop offset="8.444548e-02" style="stop-color:#8b6c23"/>
        <stop offset="0.1794" style="stop-color:#ffc825"/>
        <stop offset="0.2598" style="stop-color:#ffc825"/>
        <stop offset="0.3215" style="stop-color:#FFC825"/>
        <stop offset="0.3571" style="stop-color:#FFD326"/>
        <stop offset="0.6723" style="stop-color:#987624"/>
        <stop offset="0.9944" style="stop-color:#55451d"/>
</linearGradient>
<path id="telegram-1" class="st0" d="M18.4,22.8c0.3,0.2,0.7,0.3,1.1,0.1c0.4-0.1,0.6-0.5,0.7-0.8c0.9-4.1,3-14.4,3.8-18.1
	c0.1-0.3,0-0.6-0.3-0.8C23.5,3,23.2,2.9,22.9,3C18.7,4.6,5.8,9.4,0.5,11.4C0.2,11.5,0,11.8,0,12.2c0,0.4,0.2,0.7,0.6,0.8
	c2.4,0.7,5.5,1.7,5.5,1.7s1.5,4.4,2.2,6.6c0.1,0.3,0.3,0.5,0.6,0.6c0.3,0.1,0.6,0,0.8-0.2c1.2-1.1,3.1-2.9,3.1-2.9
	S16.4,21.3,18.4,22.8z M7.4,14.1l1.7,5.5l0.4-3.5c0,0,6.5-5.9,10.2-9.2c0.1-0.1,0.1-0.3,0-0.4c-0.1-0.1-0.3-0.1-0.4-0.1
	C15,9.2,7.4,14.1,7.4,14.1z"/>
</svg>
